# Blender v2.82 (sub 7) OBJ File: 'level.blend'
# www.blender.org
mtllib grass_spawn.mtl
o Grass_spawn_Plane.017
v -300.000000 0.000000 50.000000
v -66.000000 0.000000 50.000000
v -300.000000 0.000000 -50.000000
v -66.000000 0.000000 -50.000000
v -66.000000 0.000000 26.999998
v -66.000000 0.000000 -34.000000
v 19.000000 0.000000 26.999998
v 19.000000 0.000000 -34.000000
vt 0.000000 0.000000
vt 1.000000 0.000000
vt 1.000000 1.000000
vt 0.000000 1.000000
vt 1.000000 0.000000
vt 1.000000 1.000000
vt 1.000000 0.000000
vt 1.000000 1.000000
vn 0.0000 1.0000 0.0000
vn 0.0000 0.0000 1.0000
usemtl None
s off
f 1/1/1 2/2/1 4/3/1 3/4/1
f 4/3/2 2/2/2 5/5/2 6/6/2
f 6/6/1 5/5/1 7/7/1 8/8/1
