# Blender v2.79 (sub 0) OBJ File: 'pipe_i.blend'
# www.blender.org
mtllib pipe_i.mtl
o Cylinder
v 0.000000 -0.900000 -0.200000
v 0.000000 0.900000 -0.200000
v 0.039018 -0.900000 -0.196157
v 0.039018 0.900000 -0.196157
v 0.076537 -0.900000 -0.184776
v 0.076537 0.900000 -0.184776
v 0.111114 -0.900000 -0.166294
v 0.111114 0.900000 -0.166294
v 0.141421 -0.900000 -0.141421
v 0.141421 0.900000 -0.141421
v 0.166294 -0.900000 -0.111114
v 0.166294 0.900000 -0.111114
v 0.184776 -0.900000 -0.076537
v 0.184776 0.900000 -0.076537
v 0.196157 -0.900000 -0.039018
v 0.196157 0.900000 -0.039018
v 0.200000 -0.900000 -0.000000
v 0.200000 0.900000 -0.000000
v 0.196157 -0.900000 0.039018
v 0.196157 0.900000 0.039018
v 0.184776 -0.900000 0.076537
v 0.184776 0.900000 0.076537
v 0.166294 -0.900000 0.111114
v 0.166294 0.900000 0.111114
v 0.141421 -0.900000 0.141421
v 0.141421 0.900000 0.141421
v 0.111114 -0.900000 0.166294
v 0.111114 0.900000 0.166294
v 0.076537 -0.900000 0.184776
v 0.076537 0.900000 0.184776
v 0.039018 -0.900000 0.196157
v 0.039018 0.900000 0.196157
v -0.000000 -0.900000 0.200000
v -0.000000 0.900000 0.200000
v -0.039018 -0.900000 0.196157
v -0.039018 0.900000 0.196157
v -0.076537 -0.900000 0.184776
v -0.076537 0.900000 0.184776
v -0.111114 -0.900000 0.166294
v -0.111114 0.900000 0.166294
v -0.141421 -0.900000 0.141421
v -0.141421 0.900000 0.141421
v -0.166294 -0.900000 0.111114
v -0.166294 0.900000 0.111114
v -0.184776 -0.900000 0.076537
v -0.184776 0.900000 0.076537
v -0.196157 -0.900000 0.039018
v -0.196157 0.900000 0.039018
v -0.200000 -0.900000 -0.000000
v -0.200000 0.900000 -0.000000
v -0.196157 -0.900000 -0.039018
v -0.196157 0.900000 -0.039018
v -0.184776 -0.900000 -0.076537
v -0.184776 0.900000 -0.076537
v -0.166294 -0.900000 -0.111114
v -0.166294 0.900000 -0.111114
v -0.141421 -0.900000 -0.141422
v -0.141421 0.900000 -0.141422
v -0.111114 -0.900000 -0.166294
v -0.111114 0.900000 -0.166294
v -0.076536 -0.900000 -0.184776
v -0.076536 0.900000 -0.184776
v -0.039018 -0.900000 -0.196157
v -0.039018 0.900000 -0.196157
v -0.000000 0.900000 -0.300000
v 0.058527 0.900000 -0.294236
v 0.114805 0.900000 -0.277164
v 0.166671 0.900000 -0.249441
v 0.212132 0.900000 -0.212132
v 0.249441 0.900000 -0.166671
v 0.277164 0.900000 -0.114805
v 0.294236 0.900000 -0.058527
v 0.300000 0.900000 0.000000
v 0.294236 0.900000 0.058527
v 0.277164 0.900000 0.114805
v 0.249441 0.900000 0.166671
v 0.212132 0.900000 0.212132
v 0.166671 0.900000 0.249441
v 0.114805 0.900000 0.277164
v 0.058527 0.900000 0.294236
v -0.000000 0.900000 0.300000
v -0.058527 0.900000 0.294236
v -0.114805 0.900000 0.277164
v -0.166671 0.900000 0.249441
v -0.212132 0.900000 0.212132
v -0.249441 0.900000 0.166671
v -0.277164 0.900000 0.114805
v -0.294236 0.900000 0.058527
v -0.300000 0.900000 -0.000000
v -0.294236 0.900000 -0.058527
v -0.277164 0.900000 -0.114805
v -0.249441 0.900000 -0.166671
v -0.212132 0.900000 -0.212132
v -0.166671 0.900000 -0.249441
v -0.114805 0.900000 -0.277164
v -0.058527 0.900000 -0.294236
v -0.000000 1.000000 -0.300000
v 0.058527 1.000000 -0.294236
v 0.114805 1.000000 -0.277164
v 0.166671 1.000000 -0.249441
v 0.212132 1.000000 -0.212132
v 0.249441 1.000000 -0.166671
v 0.277164 1.000000 -0.114805
v 0.294236 1.000000 -0.058527
v 0.300000 1.000000 0.000000
v 0.294236 1.000000 0.058527
v 0.277164 1.000000 0.114805
v 0.249441 1.000000 0.166671
v 0.212132 1.000000 0.212132
v 0.166671 1.000000 0.249441
v 0.114805 1.000000 0.277164
v 0.058527 1.000000 0.294236
v -0.000000 1.000000 0.300000
v -0.058527 1.000000 0.294236
v -0.114805 1.000000 0.277164
v -0.166671 1.000000 0.249441
v -0.212132 1.000000 0.212132
v -0.249441 1.000000 0.166671
v -0.277164 1.000000 0.114805
v -0.294236 1.000000 0.058527
v -0.300000 1.000000 -0.000000
v -0.294236 1.000000 -0.058527
v -0.277164 1.000000 -0.114805
v -0.249441 1.000000 -0.166671
v -0.212132 1.000000 -0.212132
v -0.166671 1.000000 -0.249441
v -0.114805 1.000000 -0.277164
v -0.058527 1.000000 -0.294236
v -0.000000 -0.900000 -0.300000
v 0.058527 -0.900000 -0.294236
v 0.114805 -0.900000 -0.277164
v 0.166671 -0.900000 -0.249441
v 0.212132 -0.900000 -0.212132
v 0.249441 -0.900000 -0.166671
v 0.277164 -0.900000 -0.114805
v 0.294236 -0.900000 -0.058527
v 0.300000 -0.900000 0.000000
v 0.294236 -0.900000 0.058527
v 0.277164 -0.900000 0.114805
v 0.249441 -0.900000 0.166671
v 0.212132 -0.900000 0.212132
v 0.166671 -0.900000 0.249441
v 0.114805 -0.900000 0.277164
v 0.058527 -0.900000 0.294236
v -0.000000 -0.900000 0.300000
v -0.058527 -0.900000 0.294236
v -0.114805 -0.900000 0.277164
v -0.166671 -0.900000 0.249441
v -0.212132 -0.900000 0.212132
v -0.249441 -0.900000 0.166671
v -0.277164 -0.900000 0.114805
v -0.294236 -0.900000 0.058527
v -0.300000 -0.900000 -0.000000
v -0.294236 -0.900000 -0.058527
v -0.277164 -0.900000 -0.114805
v -0.249441 -0.900000 -0.166671
v -0.212132 -0.900000 -0.212132
v -0.166671 -0.900000 -0.249441
v -0.114805 -0.900000 -0.277164
v -0.058527 -0.900000 -0.294236
v -0.000000 -1.000000 -0.300000
v 0.058527 -1.000000 -0.294236
v 0.114805 -1.000000 -0.277164
v 0.166671 -1.000000 -0.249441
v 0.212132 -1.000000 -0.212132
v 0.249441 -1.000000 -0.166671
v 0.277164 -1.000000 -0.114805
v 0.294236 -1.000000 -0.058527
v 0.300000 -1.000000 0.000000
v 0.294236 -1.000000 0.058527
v 0.277164 -1.000000 0.114805
v 0.249441 -1.000000 0.166671
v 0.212132 -1.000000 0.212132
v 0.166671 -1.000000 0.249441
v 0.114805 -1.000000 0.277164
v 0.058527 -1.000000 0.294236
v -0.000000 -1.000000 0.300000
v -0.058527 -1.000000 0.294236
v -0.114805 -1.000000 0.277164
v -0.166671 -1.000000 0.249441
v -0.212132 -1.000000 0.212132
v -0.249441 -1.000000 0.166671
v -0.277164 -1.000000 0.114805
v -0.294236 -1.000000 0.058527
v -0.300000 -1.000000 -0.000000
v -0.294236 -1.000000 -0.058527
v -0.277164 -1.000000 -0.114805
v -0.249441 -1.000000 -0.166671
v -0.212132 -1.000000 -0.212132
v -0.166671 -1.000000 -0.249441
v -0.114805 -1.000000 -0.277164
v -0.058527 -1.000000 -0.294236
vn 0.0980 0.0000 -0.9952
vn 0.2903 0.0000 -0.9569
vn 0.4714 0.0000 -0.8819
vn 0.6344 0.0000 -0.7730
vn 0.7730 0.0000 -0.6344
vn 0.8819 0.0000 -0.4714
vn 0.9569 0.0000 -0.2903
vn 0.9952 0.0000 -0.0980
vn 0.9952 0.0000 0.0980
vn 0.9569 0.0000 0.2903
vn 0.8819 0.0000 0.4714
vn 0.7730 0.0000 0.6344
vn 0.6344 0.0000 0.7730
vn 0.4714 0.0000 0.8819
vn 0.2903 0.0000 0.9569
vn 0.0980 0.0000 0.9952
vn -0.0980 0.0000 0.9952
vn -0.2903 0.0000 0.9569
vn -0.4714 0.0000 0.8819
vn -0.6344 0.0000 0.7730
vn -0.7730 0.0000 0.6344
vn -0.8819 0.0000 0.4714
vn -0.9569 0.0000 0.2903
vn -0.9952 0.0000 0.0980
vn -0.9952 0.0000 -0.0980
vn -0.9569 0.0000 -0.2903
vn -0.8819 0.0000 -0.4714
vn -0.7730 0.0000 -0.6344
vn -0.6344 0.0000 -0.7730
vn -0.4714 0.0000 -0.8819
vn -0.0000 -1.0000 0.0000
vn -0.2903 0.0000 -0.9569
vn -0.0980 0.0000 -0.9952
vn -0.0000 1.0000 0.0000
usemtl None
s off
f 2//1 3//1 1//1
f 4//2 5//2 3//2
f 6//3 7//3 5//3
f 8//4 9//4 7//4
f 10//5 11//5 9//5
f 12//6 13//6 11//6
f 14//7 15//7 13//7
f 16//8 17//8 15//8
f 18//9 19//9 17//9
f 20//10 21//10 19//10
f 22//11 23//11 21//11
f 24//12 25//12 23//12
f 26//13 27//13 25//13
f 28//14 29//14 27//14
f 30//15 31//15 29//15
f 32//16 33//16 31//16
f 34//17 35//17 33//17
f 36//18 37//18 35//18
f 38//19 39//19 37//19
f 40//20 41//20 39//20
f 42//21 43//21 41//21
f 44//22 45//22 43//22
f 46//23 47//23 45//23
f 48//24 49//24 47//24
f 50//25 51//25 49//25
f 52//26 53//26 51//26
f 54//27 55//27 53//27
f 56//28 57//28 55//28
f 58//29 59//29 57//29
f 60//30 61//30 59//30
f 56//31 93//31 58//31
f 62//32 63//32 61//32
f 64//33 1//33 63//33
f 51//34 153//34 49//34
f 67//3 100//3 68//3
f 14//31 70//31 71//31
f 32//31 79//31 80//31
f 48//31 89//31 50//31
f 6//31 66//31 67//31
f 24//31 75//31 76//31
f 40//31 85//31 42//31
f 58//31 94//31 60//31
f 16//31 71//31 72//31
f 32//31 81//31 34//31
f 50//31 90//31 52//31
f 6//31 68//31 8//31
f 26//31 76//31 77//31
f 42//31 86//31 44//31
f 60//31 95//31 62//31
f 18//31 72//31 73//31
f 36//31 81//31 82//31
f 52//31 91//31 54//31
f 10//31 68//31 69//31
f 28//31 77//31 78//31
f 44//31 87//31 46//31
f 62//31 96//31 64//31
f 20//31 73//31 74//31
f 36//31 83//31 38//31
f 54//31 92//31 56//31
f 10//31 70//31 12//31
f 30//31 78//31 79//31
f 46//31 88//31 48//31
f 2//31 66//31 4//31
f 64//31 65//31 2//31
f 20//31 75//31 22//31
f 40//31 83//31 84//31
f 115//34 107//34 99//34
f 94//30 127//30 95//30
f 81//17 114//17 82//17
f 68//4 101//4 69//4
f 95//32 128//32 96//32
f 82//18 115//18 83//18
f 69//5 102//5 70//5
f 96//33 97//33 65//33
f 83//19 116//19 84//19
f 70//6 103//6 71//6
f 84//20 117//20 85//20
f 71//7 104//7 72//7
f 85//21 118//21 86//21
f 72//8 105//8 73//8
f 86//22 119//22 87//22
f 73//9 106//9 74//9
f 87//23 120//23 88//23
f 74//10 107//10 75//10
f 88//24 121//24 89//24
f 75//11 108//11 76//11
f 89//25 122//25 90//25
f 76//12 109//12 77//12
f 90//26 123//26 91//26
f 77//13 110//13 78//13
f 91//27 124//27 92//27
f 78//14 111//14 79//14
f 65//1 98//1 66//1
f 92//28 125//28 93//28
f 79//15 112//15 80//15
f 66//2 99//2 67//2
f 93//29 126//29 94//29
f 80//16 113//16 81//16
f 140//11 171//11 139//11
f 7//34 131//34 5//34
f 25//34 140//34 23//34
f 43//34 149//34 41//34
f 59//34 159//34 158//34
f 17//34 136//34 15//34
f 35//34 145//34 33//34
f 51//34 155//34 154//34
f 9//34 132//34 7//34
f 27//34 141//34 25//34
f 43//34 151//34 150//34
f 61//34 160//34 159//34
f 19//34 137//34 17//34
f 35//34 147//34 146//34
f 53//34 156//34 155//34
f 11//34 133//34 9//34
f 29//34 142//34 27//34
f 47//34 151//34 45//34
f 3//34 129//34 1//34
f 1//34 160//34 63//34
f 21//34 138//34 19//34
f 39//34 147//34 37//34
f 55//34 157//34 156//34
f 13//34 134//34 11//34
f 31//34 143//34 29//34
f 49//34 152//34 47//34
f 5//34 130//34 3//34
f 23//34 139//34 21//34
f 39//34 149//34 148//34
f 57//34 158//34 157//34
f 15//34 135//34 13//34
f 31//34 145//34 144//34
f 176//31 184//31 192//31
f 154//25 185//25 153//25
f 141//12 172//12 140//12
f 155//26 186//26 154//26
f 142//13 173//13 141//13
f 156//27 187//27 155//27
f 143//14 174//14 142//14
f 130//1 161//1 129//1
f 157//28 188//28 156//28
f 144//15 175//15 143//15
f 131//2 162//2 130//2
f 158//29 189//29 157//29
f 145//16 176//16 144//16
f 132//3 163//3 131//3
f 159//30 190//30 158//30
f 146//17 177//17 145//17
f 133//4 164//4 132//4
f 160//32 191//32 159//32
f 147//18 178//18 146//18
f 134//5 165//5 133//5
f 129//33 192//33 160//33
f 148//19 179//19 147//19
f 135//6 166//6 134//6
f 149//20 180//20 148//20
f 136//7 167//7 135//7
f 150//21 181//21 149//21
f 137//8 168//8 136//8
f 151//22 182//22 150//22
f 138//9 169//9 137//9
f 152//23 183//23 151//23
f 139//10 170//10 138//10
f 153//24 184//24 152//24
f 2//1 4//1 3//1
f 4//2 6//2 5//2
f 6//3 8//3 7//3
f 8//4 10//4 9//4
f 10//5 12//5 11//5
f 12//6 14//6 13//6
f 14//7 16//7 15//7
f 16//8 18//8 17//8
f 18//9 20//9 19//9
f 20//10 22//10 21//10
f 22//11 24//11 23//11
f 24//12 26//12 25//12
f 26//13 28//13 27//13
f 28//14 30//14 29//14
f 30//15 32//15 31//15
f 32//16 34//16 33//16
f 34//17 36//17 35//17
f 36//18 38//18 37//18
f 38//19 40//19 39//19
f 40//20 42//20 41//20
f 42//21 44//21 43//21
f 44//22 46//22 45//22
f 46//23 48//23 47//23
f 48//24 50//24 49//24
f 50//25 52//25 51//25
f 52//26 54//26 53//26
f 54//27 56//27 55//27
f 56//28 58//28 57//28
f 58//29 60//29 59//29
f 60//30 62//30 61//30
f 56//31 92//31 93//31
f 62//32 64//32 63//32
f 64//33 2//33 1//33
f 51//34 154//34 153//34
f 67//3 99//3 100//3
f 14//31 12//31 70//31
f 32//31 30//31 79//31
f 48//31 88//31 89//31
f 6//31 4//31 66//31
f 24//31 22//31 75//31
f 40//31 84//31 85//31
f 58//31 93//31 94//31
f 16//31 14//31 71//31
f 32//31 80//31 81//31
f 50//31 89//31 90//31
f 6//31 67//31 68//31
f 26//31 24//31 76//31
f 42//31 85//31 86//31
f 60//31 94//31 95//31
f 18//31 16//31 72//31
f 36//31 34//31 81//31
f 52//31 90//31 91//31
f 10//31 8//31 68//31
f 28//31 26//31 77//31
f 44//31 86//31 87//31
f 62//31 95//31 96//31
f 20//31 18//31 73//31
f 36//31 82//31 83//31
f 54//31 91//31 92//31
f 10//31 69//31 70//31
f 30//31 28//31 78//31
f 46//31 87//31 88//31
f 2//31 65//31 66//31
f 64//31 96//31 65//31
f 20//31 74//31 75//31
f 40//31 38//31 83//31
f 99//34 98//34 97//34
f 97//34 128//34 99//34
f 128//34 127//34 99//34
f 127//34 126//34 125//34
f 125//34 124//34 123//34
f 123//34 122//34 121//34
f 121//34 120//34 123//34
f 120//34 119//34 123//34
f 119//34 118//34 117//34
f 117//34 116//34 115//34
f 115//34 114//34 113//34
f 113//34 112//34 111//34
f 111//34 110//34 107//34
f 110//34 109//34 107//34
f 109//34 108//34 107//34
f 107//34 106//34 105//34
f 105//34 104//34 103//34
f 103//34 102//34 101//34
f 101//34 100//34 99//34
f 127//34 125//34 123//34
f 119//34 117//34 115//34
f 115//34 113//34 107//34
f 113//34 111//34 107//34
f 107//34 105//34 103//34
f 103//34 101//34 107//34
f 101//34 99//34 107//34
f 99//34 127//34 115//34
f 127//34 123//34 115//34
f 123//34 119//34 115//34
f 94//30 126//30 127//30
f 81//17 113//17 114//17
f 68//4 100//4 101//4
f 95//32 127//32 128//32
f 82//18 114//18 115//18
f 69//5 101//5 102//5
f 96//33 128//33 97//33
f 83//19 115//19 116//19
f 70//6 102//6 103//6
f 84//20 116//20 117//20
f 71//7 103//7 104//7
f 85//21 117//21 118//21
f 72//8 104//8 105//8
f 86//22 118//22 119//22
f 73//9 105//9 106//9
f 87//23 119//23 120//23
f 74//10 106//10 107//10
f 88//24 120//24 121//24
f 75//11 107//11 108//11
f 89//25 121//25 122//25
f 76//12 108//12 109//12
f 90//26 122//26 123//26
f 77//13 109//13 110//13
f 91//27 123//27 124//27
f 78//14 110//14 111//14
f 65//1 97//1 98//1
f 92//28 124//28 125//28
f 79//15 111//15 112//15
f 66//2 98//2 99//2
f 93//29 125//29 126//29
f 80//16 112//16 113//16
f 140//11 172//11 171//11
f 7//34 132//34 131//34
f 25//34 141//34 140//34
f 43//34 150//34 149//34
f 59//34 61//34 159//34
f 17//34 137//34 136//34
f 35//34 146//34 145//34
f 51//34 53//34 155//34
f 9//34 133//34 132//34
f 27//34 142//34 141//34
f 43//34 45//34 151//34
f 61//34 63//34 160//34
f 19//34 138//34 137//34
f 35//34 37//34 147//34
f 53//34 55//34 156//34
f 11//34 134//34 133//34
f 29//34 143//34 142//34
f 47//34 152//34 151//34
f 3//34 130//34 129//34
f 1//34 129//34 160//34
f 21//34 139//34 138//34
f 39//34 148//34 147//34
f 55//34 57//34 157//34
f 13//34 135//34 134//34
f 31//34 144//34 143//34
f 49//34 153//34 152//34
f 5//34 131//34 130//34
f 23//34 140//34 139//34
f 39//34 41//34 149//34
f 57//34 59//34 158//34
f 15//34 136//34 135//34
f 31//34 33//34 145//34
f 192//31 161//31 162//31
f 162//31 163//31 164//31
f 164//31 165//31 168//31
f 165//31 166//31 168//31
f 166//31 167//31 168//31
f 168//31 169//31 172//31
f 169//31 170//31 172//31
f 170//31 171//31 172//31
f 172//31 173//31 174//31
f 174//31 175//31 176//31
f 176//31 177//31 180//31
f 177//31 178//31 180//31
f 178//31 179//31 180//31
f 180//31 181//31 182//31
f 182//31 183//31 180//31
f 183//31 184//31 180//31
f 184//31 185//31 186//31
f 186//31 187//31 184//31
f 187//31 188//31 184//31
f 188//31 189//31 190//31
f 190//31 191//31 192//31
f 192//31 162//31 164//31
f 172//31 174//31 176//31
f 188//31 190//31 184//31
f 190//31 192//31 184//31
f 192//31 164//31 168//31
f 168//31 172//31 192//31
f 172//31 176//31 192//31
f 176//31 180//31 184//31
f 154//25 186//25 185//25
f 141//12 173//12 172//12
f 155//26 187//26 186//26
f 142//13 174//13 173//13
f 156//27 188//27 187//27
f 143//14 175//14 174//14
f 130//1 162//1 161//1
f 157//28 189//28 188//28
f 144//15 176//15 175//15
f 131//2 163//2 162//2
f 158//29 190//29 189//29
f 145//16 177//16 176//16
f 132//3 164//3 163//3
f 159//30 191//30 190//30
f 146//17 178//17 177//17
f 133//4 165//4 164//4
f 160//32 192//32 191//32
f 147//18 179//18 178//18
f 134//5 166//5 165//5
f 129//33 161//33 192//33
f 148//19 180//19 179//19
f 135//6 167//6 166//6
f 149//20 181//20 180//20
f 136//7 168//7 167//7
f 150//21 182//21 181//21
f 137//8 169//8 168//8
f 151//22 183//22 182//22
f 138//9 170//9 169//9
f 152//23 184//23 183//23
f 139//10 171//10 170//10
f 153//24 185//24 184//24
