# Blender v2.79 (sub 0) OBJ File: 'pipe_r.blend'
# www.blender.org
mtllib pipe_r.mtl
o Cylinder
v 0.000000 -0.900000 -0.200000
v 0.000000 -0.300000 -0.200000
v 0.039018 -0.900000 -0.196157
v 0.076537 -0.900000 -0.184776
v 0.111114 -0.900000 -0.166294
v 0.141421 -0.900000 -0.141421
v 0.166294 -0.900000 -0.111114
v 0.184776 -0.900000 -0.076537
v 0.196157 -0.900000 -0.039018
v 0.200000 -0.900000 -0.000000
v 0.196157 -0.900000 0.039018
v 0.184776 -0.900000 0.076537
v 0.166294 -0.900000 0.111114
v 0.141421 -0.900000 0.141421
v 0.111114 -0.900000 0.166294
v 0.076537 -0.900000 0.184776
v 0.039018 -0.900000 0.196157
v -0.000000 -0.900000 0.200000
v -0.000000 -0.300000 0.200000
v -0.039018 -0.900000 0.196157
v -0.076537 -0.900000 0.184776
v -0.111114 -0.900000 0.166294
v -0.141421 -0.900000 0.141421
v -0.166294 -0.900000 0.111114
v -0.184776 -0.900000 0.076537
v -0.196157 -0.900000 0.039018
v -0.200000 -0.900000 -0.000000
v -0.196157 -0.900000 -0.039018
v -0.184776 -0.900000 -0.076537
v -0.166294 -0.900000 -0.111114
v -0.141421 -0.900000 -0.141422
v -0.111114 -0.900000 -0.166294
v -0.076536 -0.900000 -0.184776
v -0.039018 -0.900000 -0.196157
v -0.000000 -0.900000 -0.300000
v 0.058527 -0.900000 -0.294236
v 0.114805 -0.900000 -0.277164
v 0.166671 -0.900000 -0.249441
v 0.212132 -0.900000 -0.212132
v 0.249441 -0.900000 -0.166671
v 0.277164 -0.900000 -0.114805
v 0.294236 -0.900000 -0.058527
v 0.300000 -0.900000 0.000000
v 0.294236 -0.900000 0.058527
v 0.277164 -0.900000 0.114805
v 0.249441 -0.900000 0.166671
v 0.212132 -0.900000 0.212132
v 0.166671 -0.900000 0.249441
v 0.114805 -0.900000 0.277164
v 0.058527 -0.900000 0.294236
v -0.000000 -0.900000 0.300000
v -0.058527 -0.900000 0.294236
v -0.114805 -0.900000 0.277164
v -0.166671 -0.900000 0.249441
v -0.212132 -0.900000 0.212132
v -0.249441 -0.900000 0.166671
v -0.277164 -0.900000 0.114805
v -0.294236 -0.900000 0.058527
v -0.300000 -0.900000 -0.000000
v -0.294236 -0.900000 -0.058527
v -0.277164 -0.900000 -0.114805
v -0.249441 -0.900000 -0.166671
v -0.212132 -0.900000 -0.212132
v -0.166671 -0.900000 -0.249441
v -0.114805 -0.900000 -0.277164
v -0.058527 -0.900000 -0.294236
v -0.000000 -1.000000 -0.300000
v 0.058527 -1.000000 -0.294236
v 0.114805 -1.000000 -0.277164
v 0.166671 -1.000000 -0.249441
v 0.212132 -1.000000 -0.212132
v 0.249441 -1.000000 -0.166671
v 0.277164 -1.000000 -0.114805
v 0.294236 -1.000000 -0.058527
v 0.300000 -1.000000 0.000000
v 0.294236 -1.000000 0.058527
v 0.277164 -1.000000 0.114805
v 0.249441 -1.000000 0.166671
v 0.212132 -1.000000 0.212132
v 0.166671 -1.000000 0.249441
v 0.114805 -1.000000 0.277164
v 0.058527 -1.000000 0.294236
v -0.000000 -1.000000 0.300000
v -0.058527 -1.000000 0.294236
v -0.114805 -1.000000 0.277164
v -0.166671 -1.000000 0.249441
v -0.212132 -1.000000 0.212132
v -0.249441 -1.000000 0.166671
v -0.277164 -1.000000 0.114805
v -0.294236 -1.000000 0.058527
v -0.300000 -1.000000 -0.000000
v -0.294236 -1.000000 -0.058527
v -0.277164 -1.000000 -0.114805
v -0.249441 -1.000000 -0.166671
v -0.212132 -1.000000 -0.212132
v -0.166671 -1.000000 -0.249441
v -0.114805 -1.000000 -0.277164
v -0.058527 -1.000000 -0.294236
v 0.300000 -0.000000 -0.200000
v 0.900000 -0.000000 -0.200000
v 0.300000 -0.039018 -0.196157
v 0.900000 -0.039018 -0.196157
v 0.300000 -0.076537 -0.184776
v 0.900000 -0.076537 -0.184776
v 0.300000 -0.111114 -0.166294
v 0.900000 -0.111114 -0.166294
v 0.300000 -0.141422 -0.141421
v 0.900000 -0.141422 -0.141421
v 0.300000 -0.166294 -0.111114
v 0.900000 -0.166294 -0.111114
v 0.300000 -0.184776 -0.076537
v 0.900000 -0.184776 -0.076537
v 0.300000 -0.196157 -0.039018
v 0.900000 -0.196157 -0.039018
v 0.300000 -0.200000 0.000000
v 0.900000 -0.200000 -0.000000
v 0.300000 -0.196157 0.039018
v 0.900000 -0.196157 0.039018
v 0.300000 -0.184776 0.076537
v 0.900000 -0.184776 0.076536
v 0.300000 -0.166294 0.111114
v 0.900000 -0.166294 0.111114
v 0.300000 -0.141422 0.141421
v 0.900000 -0.141422 0.141421
v 0.300000 -0.111114 0.166294
v 0.900000 -0.111114 0.166294
v 0.300000 -0.076537 0.184776
v 0.900000 -0.076537 0.184776
v 0.300000 -0.039018 0.196157
v 0.900000 -0.039018 0.196157
v 0.300000 -0.000000 0.200000
v 0.900000 -0.000000 0.200000
v 0.300000 0.039018 0.196157
v 0.900000 0.039018 0.196157
v 0.300000 0.076537 0.184776
v 0.900000 0.076536 0.184776
v 0.300000 0.111114 0.166294
v 0.900000 0.111114 0.166294
v 0.300000 0.141421 0.141421
v 0.900000 0.141421 0.141421
v 0.300000 0.166294 0.111114
v 0.900000 0.166294 0.111114
v 0.300000 0.184776 0.076537
v 0.900000 0.184776 0.076536
v 0.300000 0.196157 0.039018
v 0.900000 0.196157 0.039018
v 0.300000 0.200000 -0.000000
v 0.900000 0.200000 -0.000000
v 0.300000 0.196157 -0.039018
v 0.900000 0.196157 -0.039018
v 0.300000 0.184776 -0.076537
v 0.900000 0.184776 -0.076537
v 0.300000 0.166294 -0.111114
v 0.900000 0.166294 -0.111114
v 0.300000 0.141421 -0.141421
v 0.900000 0.141421 -0.141422
v 0.300000 0.111114 -0.166294
v 0.900000 0.111114 -0.166294
v 0.300000 0.076536 -0.184776
v 0.900000 0.076536 -0.184776
v 0.300000 0.039018 -0.196157
v 0.900000 0.039017 -0.196157
v 0.900000 -0.000000 -0.300000
v 0.900000 -0.058527 -0.294236
v 0.900000 -0.114805 -0.277164
v 0.900000 -0.166671 -0.249441
v 0.900000 -0.212132 -0.212132
v 0.900000 -0.249441 -0.166671
v 0.900000 -0.277164 -0.114805
v 0.900000 -0.294236 -0.058527
v 0.900000 -0.300000 -0.000000
v 0.900000 -0.294236 0.058527
v 0.900000 -0.277164 0.114805
v 0.900000 -0.249441 0.166671
v 0.900000 -0.212132 0.212132
v 0.900000 -0.166671 0.249441
v 0.900000 -0.114805 0.277164
v 0.900000 -0.058527 0.294235
v 0.900000 -0.000000 0.300000
v 0.900001 0.058527 0.294235
v 0.900000 0.114805 0.277164
v 0.900001 0.166671 0.249441
v 0.900000 0.212132 0.212132
v 0.900000 0.249441 0.166671
v 0.900000 0.277164 0.114805
v 0.900000 0.294235 0.058527
v 0.900000 0.300000 -0.000000
v 0.900000 0.294235 -0.058527
v 0.900001 0.277163 -0.114805
v 0.900000 0.249440 -0.166671
v 0.900000 0.212132 -0.212132
v 0.900000 0.166670 -0.249441
v 0.900000 0.114804 -0.277164
v 0.900001 0.058526 -0.294236
v 1.000000 -0.000000 -0.300000
v 1.000000 -0.058527 -0.294236
v 1.000000 -0.114805 -0.277164
v 1.000000 -0.166671 -0.249441
v 1.000000 -0.212132 -0.212132
v 1.000000 -0.249441 -0.166671
v 1.000000 -0.277164 -0.114805
v 1.000000 -0.294236 -0.058527
v 1.000000 -0.300000 -0.000000
v 1.000000 -0.294236 0.058527
v 1.000000 -0.277164 0.114805
v 1.000000 -0.249441 0.166671
v 1.000000 -0.212132 0.212132
v 1.000000 -0.166671 0.249441
v 1.000000 -0.114805 0.277164
v 1.000000 -0.058527 0.294235
v 1.000000 -0.000000 0.300000
v 1.000000 0.058527 0.294235
v 1.000000 0.114805 0.277164
v 1.000000 0.166671 0.249441
v 1.000000 0.212132 0.212132
v 1.000000 0.249441 0.166671
v 1.000000 0.277164 0.114805
v 1.000000 0.294235 0.058527
v 1.000000 0.300000 -0.000000
v 1.000000 0.294235 -0.058527
v 1.000000 0.277163 -0.114805
v 1.000000 0.249440 -0.166671
v 1.000000 0.212132 -0.212132
v 1.000000 0.166670 -0.249441
v 1.000000 0.114804 -0.277164
v 1.000000 0.058526 -0.294236
v 0.039018 -0.300000 -0.196157
v 0.076537 -0.300000 -0.184776
v 0.111114 -0.300000 -0.166294
v 0.141422 -0.300000 -0.141421
v 0.166294 -0.300000 -0.111114
v 0.184776 -0.300000 -0.076537
v 0.196157 -0.300000 -0.039018
v 0.200000 -0.300000 0.000000
v 0.196157 -0.300000 0.039018
v 0.184776 -0.300000 0.076537
v 0.166294 -0.300000 0.111114
v 0.141422 -0.300000 0.141421
v 0.111114 -0.300000 0.166294
v 0.076537 -0.300000 0.184776
v 0.039018 -0.300000 0.196157
v -0.039018 -0.300000 0.196157
v -0.076537 -0.300000 0.184776
v -0.111114 -0.300000 0.166294
v -0.141421 -0.300000 0.141421
v -0.166294 -0.300000 0.111114
v -0.184776 -0.300000 0.076537
v -0.196157 -0.300000 0.039018
v -0.200000 -0.300000 -0.000000
v -0.196157 -0.300000 -0.039018
v -0.184776 -0.300000 -0.076537
v -0.166294 -0.300000 -0.111114
v -0.141421 -0.300000 -0.141421
v -0.111114 -0.300000 -0.166294
v -0.076536 -0.300000 -0.184776
v -0.039017 -0.300000 -0.196157
vn 0.0980 0.0000 -0.9952
vn 0.2903 0.0000 -0.9569
vn 0.4714 -0.0000 -0.8819
vn 0.6344 -0.0000 -0.7730
vn 0.7730 -0.0000 -0.6344
vn 0.8819 -0.0000 -0.4714
vn 0.9569 -0.0000 -0.2903
vn 0.9952 -0.0000 -0.0980
vn 0.9952 -0.0000 0.0980
vn 0.9569 -0.0000 0.2903
vn 0.8819 -0.0000 0.4714
vn 0.7730 -0.0000 0.6344
vn 0.6344 -0.0000 0.7730
vn 0.4714 -0.0000 0.8819
vn 0.2903 -0.0000 0.9569
vn 0.0980 0.0000 0.9952
vn -0.0980 -0.0000 0.9952
vn -0.2903 -0.0000 0.9569
vn -0.4714 0.0000 0.8819
vn -0.6344 0.0000 0.7730
vn -0.7730 0.0000 0.6344
vn -0.8819 0.0000 0.4714
vn -0.9569 0.0000 0.2903
vn -0.9952 0.0000 0.0980
vn -0.9952 0.0000 -0.0980
vn -0.9569 0.0000 -0.2903
vn -0.8819 0.0000 -0.4714
vn -0.7730 0.0000 -0.6344
vn -0.6344 0.0000 -0.7730
vn -0.4714 0.0000 -0.8819
vn -0.2903 0.0000 -0.9569
vn -0.0980 0.0000 -0.9952
vn -0.0000 1.0000 0.0000
vn 0.0000 -1.0000 0.0000
vn -0.0000 -0.0980 -0.9952
vn -0.0000 -0.2903 -0.9569
vn -0.0000 -0.4714 -0.8819
vn -0.0000 -0.6344 -0.7730
vn -0.0000 -0.7730 -0.6344
vn -0.0000 -0.8819 -0.4714
vn -0.0000 -0.9569 -0.2903
vn -0.0000 -0.9952 -0.0980
vn -0.0000 -0.9952 0.0980
vn 0.0000 -0.9569 0.2903
vn 0.0000 -0.8819 0.4714
vn 0.0000 -0.7730 0.6344
vn 0.0000 -0.6344 0.7730
vn 0.0000 -0.4714 0.8819
vn 0.0000 -0.2903 0.9569
vn 0.0000 -0.0980 0.9952
vn 0.0000 0.0980 0.9952
vn 0.0000 0.2903 0.9569
vn 0.0000 0.4714 0.8819
vn 0.0000 0.6344 0.7730
vn 0.0000 0.7730 0.6344
vn 0.0000 0.8819 0.4714
vn 0.0000 0.9569 0.2903
vn 0.0000 0.9952 0.0980
vn 0.0000 0.9952 -0.0980
vn -0.0000 0.9569 -0.2903
vn -0.0000 0.8819 -0.4714
vn -0.0000 0.7730 -0.6344
vn -0.0000 0.6344 -0.7730
vn -0.0000 0.4714 -0.8819
vn -1.0000 0.0000 -0.0000
vn -0.0000 0.2903 -0.9569
vn -0.0000 0.0980 -0.9952
vn 1.0000 0.0000 0.0000
vn 0.7054 -0.7054 0.0695
vn -0.2788 0.2788 0.9190
vn -0.6614 0.6614 -0.3535
vn 0.6116 -0.6116 -0.5019
vn 0.4264 -0.4264 0.7977
vn -0.6914 0.6914 0.2097
vn 0.0976 -0.0976 -0.9904
vn -0.0976 0.0976 -0.9904
vn 0.6914 -0.6914 0.2097
vn -0.4264 0.4264 0.7977
vn -0.6116 0.6116 -0.5019
vn 0.6614 -0.6614 -0.3535
vn 0.2788 -0.2788 0.9190
vn -0.7054 0.7054 0.0695
vn 0.2788 -0.2788 -0.9190
vn 0.6614 -0.6614 0.3535
vn -0.5357 0.5357 0.6527
vn -0.5357 0.5357 -0.6527
vn 0.6914 -0.6914 -0.2097
vn 0.0975 -0.0975 0.9904
vn -0.7054 0.7054 -0.0695
vn 0.4264 -0.4264 -0.7977
vn 0.6116 -0.6116 0.5019
vn -0.6116 0.6116 0.5019
vn -0.4264 0.4264 -0.7977
vn 0.7054 -0.7054 -0.0695
vn -0.0975 0.0975 0.9904
vn -0.6914 0.6914 -0.2097
vn 0.5357 -0.5357 -0.6527
vn 0.5357 -0.5357 0.6527
vn -0.6614 0.6614 0.3535
vn -0.2788 0.2788 -0.9190
vn 0.0975 -0.0975 -0.9904
vn -0.0975 0.0975 -0.9904
usemtl None
s off
f 2//1 3//1 1//1
f 227//2 4//2 3//2
f 228//3 5//3 4//3
f 229//4 6//4 5//4
f 230//5 7//5 6//5
f 231//6 8//6 7//6
f 232//7 9//7 8//7
f 233//8 10//8 9//8
f 234//9 11//9 10//9
f 235//10 12//10 11//10
f 12//11 237//11 13//11
f 13//12 238//12 14//12
f 14//13 239//13 15//13
f 15//14 240//14 16//14
f 16//15 241//15 17//15
f 17//16 19//16 18//16
f 18//17 242//17 20//17
f 20//18 243//18 21//18
f 21//19 244//19 22//19
f 22//20 245//20 23//20
f 23//21 246//21 24//21
f 24//22 247//22 25//22
f 25//23 248//23 26//23
f 26//24 249//24 27//24
f 27//25 250//25 28//25
f 28//26 251//26 29//26
f 251//27 30//27 29//27
f 252//28 31//28 30//28
f 253//29 32//29 31//29
f 254//30 33//30 32//30
f 255//31 34//31 33//31
f 256//32 1//32 34//32
f 28//33 59//33 27//33
f 232//33 228//33 243//33
f 46//11 77//11 45//11
f 5//33 37//33 4//33
f 14//33 46//33 13//33
f 24//33 55//33 23//33
f 32//33 65//33 64//33
f 10//33 42//33 9//33
f 20//33 51//33 18//33
f 28//33 61//33 60//33
f 6//33 38//33 5//33
f 15//33 47//33 14//33
f 24//33 57//33 56//33
f 33//33 66//33 65//33
f 11//33 43//33 10//33
f 20//33 53//33 52//33
f 29//33 62//33 61//33
f 7//33 39//33 6//33
f 16//33 48//33 15//33
f 26//33 57//33 25//33
f 3//33 35//33 1//33
f 1//33 66//33 34//33
f 12//33 44//33 11//33
f 22//33 53//33 21//33
f 30//33 63//33 62//33
f 8//33 40//33 7//33
f 17//33 49//33 16//33
f 27//33 58//33 26//33
f 4//33 36//33 3//33
f 13//33 45//33 12//33
f 22//33 55//33 54//33
f 31//33 64//33 63//33
f 9//33 41//33 8//33
f 17//33 51//33 50//33
f 82//34 90//34 98//34
f 60//25 91//25 59//25
f 47//12 78//12 46//12
f 61//26 92//26 60//26
f 48//13 79//13 47//13
f 62//27 93//27 61//27
f 49//14 80//14 48//14
f 36//1 67//1 35//1
f 63//28 94//28 62//28
f 50//15 81//15 49//15
f 37//2 68//2 36//2
f 64//29 95//29 63//29
f 51//16 82//16 50//16
f 38//3 69//3 37//3
f 65//30 96//30 64//30
f 52//17 83//17 51//17
f 39//4 70//4 38//4
f 66//31 97//31 65//31
f 53//18 84//18 52//18
f 40//5 71//5 39//5
f 35//32 98//32 66//32
f 54//19 85//19 53//19
f 41//6 72//6 40//6
f 55//20 86//20 54//20
f 42//7 73//7 41//7
f 56//21 87//21 55//21
f 43//8 74//8 42//8
f 57//22 88//22 56//22
f 44//9 75//9 43//9
f 58//23 89//23 57//23
f 45//10 76//10 44//10
f 59//24 90//24 58//24
f 100//35 101//35 99//35
f 102//36 103//36 101//36
f 104//37 105//37 103//37
f 106//38 107//38 105//38
f 108//39 109//39 107//39
f 110//40 111//40 109//40
f 111//41 114//41 113//41
f 114//42 115//42 113//42
f 116//43 117//43 115//43
f 118//44 119//44 117//44
f 119//45 122//45 121//45
f 122//46 123//46 121//46
f 123//47 126//47 125//47
f 126//48 127//48 125//48
f 128//49 129//49 127//49
f 130//50 131//50 129//50
f 132//51 133//51 131//51
f 134//52 135//52 133//52
f 136//53 137//53 135//53
f 138//54 139//54 137//54
f 140//55 141//55 139//55
f 142//56 143//56 141//56
f 144//57 145//57 143//57
f 146//58 147//58 145//58
f 148//59 149//59 147//59
f 150//60 151//60 149//60
f 152//61 153//61 151//61
f 154//62 155//62 153//62
f 156//63 157//63 155//63
f 158//64 159//64 157//64
f 156//65 190//65 191//65
f 160//66 161//66 159//66
f 162//67 99//67 161//67
f 165//37 198//37 166//37
f 110//65 169//65 112//65
f 130//65 177//65 178//65
f 146//65 187//65 148//65
f 102//65 165//65 104//65
f 122//65 173//65 174//65
f 138//65 183//65 140//65
f 158//65 191//65 192//65
f 112//65 170//65 114//65
f 132//65 178//65 179//65
f 150//65 187//65 188//65
f 104//65 166//65 106//65
f 124//65 174//65 175//65
f 140//65 184//65 142//65
f 160//65 192//65 193//65
f 114//65 171//65 116//65
f 132//65 180//65 134//65
f 152//65 188//65 189//65
f 106//65 167//65 108//65
f 126//65 175//65 176//65
f 142//65 185//65 144//65
f 162//65 193//65 194//65
f 118//65 171//65 172//65
f 134//65 181//65 136//65
f 154//65 189//65 190//65
f 108//65 168//65 110//65
f 128//65 176//65 177//65
f 144//65 186//65 146//65
f 100//65 164//65 102//65
f 100//65 194//65 163//65
f 120//65 172//65 173//65
f 136//65 182//65 138//65
f 199//68 198//68 223//68
f 193//64 224//64 225//64
f 180//51 211//51 212//51
f 166//38 199//38 167//38
f 194//66 225//66 226//66
f 180//52 213//52 181//52
f 167//39 200//39 168//39
f 194//67 195//67 163//67
f 182//53 213//53 214//53
f 168//40 201//40 169//40
f 182//54 215//54 183//54
f 169//41 202//41 170//41
f 183//55 216//55 184//55
f 170//42 203//42 171//42
f 184//56 217//56 185//56
f 171//43 204//43 172//43
f 185//57 218//57 186//57
f 172//44 205//44 173//44
f 186//58 219//58 187//58
f 174//45 205//45 206//45
f 187//59 220//59 188//59
f 174//46 207//46 175//46
f 189//60 220//60 221//60
f 175//47 208//47 176//47
f 189//61 222//61 190//61
f 177//48 208//48 209//48
f 163//35 196//35 164//35
f 190//62 223//62 191//62
f 177//49 210//49 178//49
f 164//36 197//36 165//36
f 191//63 224//63 192//63
f 178//50 211//50 179//50
f 117//69 234//69 115//69
f 135//70 242//70 133//70
f 151//71 252//71 251//71
f 107//72 231//72 230//72
f 127//73 239//73 125//73
f 145//74 247//74 143//74
f 99//75 227//75 2//75
f 161//76 2//76 256//76
f 119//77 235//77 117//77
f 137//78 243//78 135//78
f 153//79 253//79 252//79
f 109//80 232//80 231//80
f 129//81 240//81 127//81
f 147//82 248//82 145//82
f 101//83 228//83 227//83
f 121//84 236//84 119//84
f 139//85 244//85 137//85
f 155//86 254//86 253//86
f 111//87 233//87 232//87
f 131//88 241//88 129//88
f 147//89 250//89 249//89
f 103//90 229//90 228//90
f 123//91 237//91 121//91
f 141//92 245//92 139//92
f 157//93 255//93 254//93
f 113//94 234//94 233//94
f 133//95 19//95 131//95
f 149//96 251//96 250//96
f 105//97 230//97 229//97
f 125//98 238//98 123//98
f 143//99 246//99 141//99
f 159//100 256//100 255//100
f 2//1 227//1 3//1
f 227//2 228//2 4//2
f 228//3 229//3 5//3
f 229//4 230//4 6//4
f 230//5 231//5 7//5
f 231//6 232//6 8//6
f 232//7 233//7 9//7
f 233//8 234//8 10//8
f 234//9 235//9 11//9
f 235//10 236//10 12//10
f 12//11 236//11 237//11
f 13//12 237//12 238//12
f 14//13 238//13 239//13
f 15//14 239//14 240//14
f 16//15 240//15 241//15
f 17//16 241//16 19//16
f 18//17 19//17 242//17
f 20//18 242//18 243//18
f 21//19 243//19 244//19
f 22//20 244//20 245//20
f 23//21 245//21 246//21
f 24//22 246//22 247//22
f 25//23 247//23 248//23
f 26//24 248//24 249//24
f 27//25 249//25 250//25
f 28//26 250//26 251//26
f 251//27 252//27 30//27
f 252//28 253//28 31//28
f 253//29 254//29 32//29
f 254//30 255//30 33//30
f 255//31 256//31 34//31
f 256//32 2//32 1//32
f 28//33 60//33 59//33
f 228//33 227//33 255//33
f 227//33 2//33 255//33
f 2//33 256//33 255//33
f 255//33 254//33 253//33
f 253//33 252//33 251//33
f 251//33 250//33 247//33
f 250//33 249//33 247//33
f 249//33 248//33 247//33
f 247//33 246//33 243//33
f 246//33 245//33 243//33
f 245//33 244//33 243//33
f 243//33 242//33 19//33
f 19//33 241//33 240//33
f 240//33 239//33 238//33
f 238//33 237//33 236//33
f 236//33 235//33 234//33
f 234//33 233//33 232//33
f 232//33 231//33 228//33
f 231//33 230//33 228//33
f 230//33 229//33 228//33
f 255//33 253//33 251//33
f 243//33 19//33 236//33
f 19//33 240//33 236//33
f 240//33 238//33 236//33
f 236//33 234//33 232//33
f 228//33 255//33 243//33
f 255//33 251//33 243//33
f 251//33 247//33 243//33
f 236//33 232//33 243//33
f 46//11 78//11 77//11
f 5//33 38//33 37//33
f 14//33 47//33 46//33
f 24//33 56//33 55//33
f 32//33 33//33 65//33
f 10//33 43//33 42//33
f 20//33 52//33 51//33
f 28//33 29//33 61//33
f 6//33 39//33 38//33
f 15//33 48//33 47//33
f 24//33 25//33 57//33
f 33//33 34//33 66//33
f 11//33 44//33 43//33
f 20//33 21//33 53//33
f 29//33 30//33 62//33
f 7//33 40//33 39//33
f 16//33 49//33 48//33
f 26//33 58//33 57//33
f 3//33 36//33 35//33
f 1//33 35//33 66//33
f 12//33 45//33 44//33
f 22//33 54//33 53//33
f 30//33 31//33 63//33
f 8//33 41//33 40//33
f 17//33 50//33 49//33
f 27//33 59//33 58//33
f 4//33 37//33 36//33
f 13//33 46//33 45//33
f 22//33 23//33 55//33
f 31//33 32//33 64//33
f 9//33 42//33 41//33
f 17//33 18//33 51//33
f 98//34 67//34 68//34
f 68//34 69//34 70//34
f 70//34 71//34 74//34
f 71//34 72//34 74//34
f 72//34 73//34 74//34
f 74//34 75//34 78//34
f 75//34 76//34 78//34
f 76//34 77//34 78//34
f 78//34 79//34 80//34
f 80//34 81//34 82//34
f 82//34 83//34 86//34
f 83//34 84//34 86//34
f 84//34 85//34 86//34
f 86//34 87//34 88//34
f 88//34 89//34 86//34
f 89//34 90//34 86//34
f 90//34 91//34 92//34
f 92//34 93//34 90//34
f 93//34 94//34 90//34
f 94//34 95//34 96//34
f 96//34 97//34 98//34
f 98//34 68//34 70//34
f 78//34 80//34 82//34
f 94//34 96//34 90//34
f 96//34 98//34 90//34
f 98//34 70//34 74//34
f 74//34 78//34 98//34
f 78//34 82//34 98//34
f 82//34 86//34 90//34
f 60//25 92//25 91//25
f 47//12 79//12 78//12
f 61//26 93//26 92//26
f 48//13 80//13 79//13
f 62//27 94//27 93//27
f 49//14 81//14 80//14
f 36//1 68//1 67//1
f 63//28 95//28 94//28
f 50//15 82//15 81//15
f 37//2 69//2 68//2
f 64//29 96//29 95//29
f 51//16 83//16 82//16
f 38//3 70//3 69//3
f 65//30 97//30 96//30
f 52//17 84//17 83//17
f 39//4 71//4 70//4
f 66//31 98//31 97//31
f 53//18 85//18 84//18
f 40//5 72//5 71//5
f 35//32 67//32 98//32
f 54//19 86//19 85//19
f 41//6 73//6 72//6
f 55//20 87//20 86//20
f 42//7 74//7 73//7
f 56//21 88//21 87//21
f 43//8 75//8 74//8
f 57//22 89//22 88//22
f 44//9 76//9 75//9
f 58//23 90//23 89//23
f 45//10 77//10 76//10
f 59//24 91//24 90//24
f 100//35 102//35 101//35
f 102//36 104//36 103//36
f 104//37 106//37 105//37
f 106//38 108//38 107//38
f 108//39 110//39 109//39
f 110//40 112//40 111//40
f 111//41 112//41 114//41
f 114//42 116//42 115//42
f 116//43 118//43 117//43
f 118//44 120//44 119//44
f 119//45 120//45 122//45
f 122//46 124//46 123//46
f 123//47 124//47 126//47
f 126//48 128//48 127//48
f 128//49 130//49 129//49
f 130//50 132//50 131//50
f 132//51 134//51 133//51
f 134//52 136//52 135//52
f 136//53 138//53 137//53
f 138//54 140//54 139//54
f 140//55 142//55 141//55
f 142//56 144//56 143//56
f 144//57 146//57 145//57
f 146//58 148//58 147//58
f 148//59 150//59 149//59
f 150//60 152//60 151//60
f 152//61 154//61 153//61
f 154//62 156//62 155//62
f 156//63 158//63 157//63
f 158//64 160//64 159//64
f 156//65 154//65 190//65
f 160//66 162//66 161//66
f 162//67 100//67 99//67
f 165//37 197//37 198//37
f 110//65 168//65 169//65
f 130//65 128//65 177//65
f 146//65 186//65 187//65
f 102//65 164//65 165//65
f 122//65 120//65 173//65
f 138//65 182//65 183//65
f 158//65 156//65 191//65
f 112//65 169//65 170//65
f 132//65 130//65 178//65
f 150//65 148//65 187//65
f 104//65 165//65 166//65
f 124//65 122//65 174//65
f 140//65 183//65 184//65
f 160//65 158//65 192//65
f 114//65 170//65 171//65
f 132//65 179//65 180//65
f 152//65 150//65 188//65
f 106//65 166//65 167//65
f 126//65 124//65 175//65
f 142//65 184//65 185//65
f 162//65 160//65 193//65
f 118//65 116//65 171//65
f 134//65 180//65 181//65
f 154//65 152//65 189//65
f 108//65 167//65 168//65
f 128//65 126//65 176//65
f 144//65 185//65 186//65
f 100//65 163//65 164//65
f 100//65 162//65 194//65
f 120//65 118//65 172//65
f 136//65 181//65 182//65
f 197//68 196//68 225//68
f 196//68 195//68 226//68
f 225//68 196//68 226//68
f 225//68 224//68 197//68
f 224//68 223//68 198//68
f 197//68 224//68 198//68
f 223//68 222//68 199//68
f 222//68 221//68 200//68
f 199//68 222//68 200//68
f 221//68 220//68 202//68
f 220//68 219//68 203//68
f 219//68 218//68 204//68
f 218//68 217//68 205//68
f 217//68 216//68 205//68
f 216//68 215//68 206//68
f 205//68 216//68 206//68
f 215//68 214//68 207//68
f 214//68 213//68 208//68
f 207//68 214//68 208//68
f 213//68 212//68 209//68
f 212//68 211//68 210//68
f 209//68 212//68 210//68
f 209//68 208//68 213//68
f 207//68 206//68 215//68
f 205//68 204//68 218//68
f 204//68 203//68 219//68
f 203//68 202//68 220//68
f 202//68 201//68 221//68
f 201//68 200//68 221//68
f 193//64 192//64 224//64
f 180//51 179//51 211//51
f 166//38 198//38 199//38
f 194//66 193//66 225//66
f 180//52 212//52 213//52
f 167//39 199//39 200//39
f 194//67 226//67 195//67
f 182//53 181//53 213//53
f 168//40 200//40 201//40
f 182//54 214//54 215//54
f 169//41 201//41 202//41
f 183//55 215//55 216//55
f 170//42 202//42 203//42
f 184//56 216//56 217//56
f 171//43 203//43 204//43
f 185//57 217//57 218//57
f 172//44 204//44 205//44
f 186//58 218//58 219//58
f 174//45 173//45 205//45
f 187//59 219//59 220//59
f 174//46 206//46 207//46
f 189//60 188//60 220//60
f 175//47 207//47 208//47
f 189//61 221//61 222//61
f 177//48 176//48 208//48
f 163//35 195//35 196//35
f 190//62 222//62 223//62
f 177//49 209//49 210//49
f 164//36 196//36 197//36
f 191//63 223//63 224//63
f 178//50 210//50 211//50
f 117//69 235//69 234//69
f 135//70 243//70 242//70
f 151//71 153//71 252//71
f 107//72 109//72 231//72
f 127//73 240//73 239//73
f 145//74 248//74 247//74
f 99//101 101//101 227//101
f 161//102 99//102 2//102
f 119//77 236//77 235//77
f 137//78 244//78 243//78
f 153//79 155//79 253//79
f 109//80 111//80 232//80
f 129//81 241//81 240//81
f 147//82 249//82 248//82
f 101//83 103//83 228//83
f 121//84 237//84 236//84
f 139//85 245//85 244//85
f 155//86 157//86 254//86
f 111//87 113//87 233//87
f 131//88 19//88 241//88
f 147//89 149//89 250//89
f 103//90 105//90 229//90
f 123//91 238//91 237//91
f 141//92 246//92 245//92
f 157//93 159//93 255//93
f 113//94 115//94 234//94
f 133//95 242//95 19//95
f 149//96 151//96 251//96
f 105//97 107//97 230//97
f 125//98 239//98 238//98
f 143//99 247//99 246//99
f 159//100 161//100 256//100
