# Blender v2.82 (sub 7) OBJ File: ''
# www.blender.org
mtllib terminal.mtl
o Cube_Cube.001
v -1.000000 0.000000 1.000000
v -1.000000 1.000000 1.000000
v -1.000000 0.000000 -1.000000
v -1.000000 1.000000 -1.000000
v 1.000000 0.000000 1.000000
v 1.000000 1.000000 1.000000
v 1.000000 0.000000 -1.000000
v 1.000000 1.000000 -1.000000
v -0.900000 1.299228 -0.412403
v 0.900000 1.299228 -0.412403
v -0.900000 1.900772 -0.487597
v -1.000000 2.000000 -1.000000
v 1.000000 2.000000 -1.000000
v 0.900000 1.900772 -0.487597
v -0.100000 1.299228 -0.412403
v -0.100000 1.900772 -0.487597
v -1.000000 2.000000 -0.500000
v -1.000000 1.200000 -0.400000
v 0.100000 1.299228 -0.412403
v 0.100000 1.900772 -0.487597
v 0.000000 1.200000 -0.400000
v 1.000000 1.200000 -0.400000
v 0.000000 2.000000 -0.500000
v 1.000000 2.000000 -0.500000
v -0.900000 1.888369 -0.586824
v -0.900000 1.286824 -0.511631
v -0.100000 1.286824 -0.511631
v -0.100000 1.888369 -0.586824
v 0.100000 1.286824 -0.511631
v 0.900000 1.286824 -0.511631
v 0.100000 1.888369 -0.586824
v 0.900000 1.888369 -0.586824
v 0.000000 1.000000 1.000000
v 0.000000 1.133333 0.066667
v 0.000000 1.066667 0.533333
v 1.000000 1.133333 0.066667
v 1.000000 1.066667 0.533333
v -1.000000 1.066667 0.533333
v -1.000000 1.133333 0.066667
v -0.500000 1.000000 1.000000
v 0.500000 1.200000 -0.400000
v -0.500000 1.200000 -0.400000
v 0.500000 1.000000 1.000000
v 0.500000 1.066667 0.533333
v 0.500000 1.133333 0.066667
v -0.500000 1.066667 0.533333
v -0.500000 1.133333 0.066667
v -0.600000 1.147475 -0.032328
v -0.600000 1.185858 -0.301005
v -0.900000 1.185858 -0.301005
v -0.900000 1.147475 -0.032328
v 0.600000 1.147475 -0.032328
v 0.900000 1.147475 -0.032328
v 0.900000 1.185858 -0.301005
v 0.600000 1.185858 -0.301005
v 0.600000 1.014142 0.901005
v 0.900000 1.014142 0.901005
v 0.900000 1.052525 0.632328
v 0.600000 1.052525 0.632328
v 0.600000 1.080809 0.434338
v 0.900000 1.080809 0.434338
v 0.900000 1.119191 0.165662
v 0.600000 1.119191 0.165662
v -0.600000 1.014142 0.901005
v -0.600000 1.052525 0.632328
v -0.900000 1.052525 0.632328
v -0.900000 1.014142 0.901005
v -0.600000 1.080809 0.434338
v -0.600000 1.119191 0.165662
v -0.900000 1.119191 0.165662
v -0.900000 1.080809 0.434338
v -0.100000 1.080809 0.434338
v -0.100000 1.119191 0.165662
v -0.400000 1.119191 0.165662
v -0.400000 1.080809 0.434338
v -0.100000 1.014142 0.901005
v -0.100000 1.052525 0.632328
v -0.400000 1.052525 0.632328
v -0.400000 1.014142 0.901005
v 0.100000 1.080809 0.434338
v 0.400000 1.080809 0.434338
v 0.400000 1.119191 0.165662
v 0.100000 1.119191 0.165662
v 0.100000 1.014142 0.901005
v 0.400000 1.014142 0.901005
v 0.400000 1.052525 0.632328
v 0.100000 1.052525 0.632328
v 0.100000 1.147475 -0.032328
v 0.400000 1.147475 -0.032328
v 0.400000 1.185858 -0.301005
v 0.100000 1.185858 -0.301005
v -0.100000 1.147475 -0.032328
v -0.100000 1.185858 -0.301005
v -0.400000 1.185858 -0.301005
v -0.400000 1.147475 -0.032328
v -0.600000 1.235355 -0.293934
v -0.600000 1.196973 -0.025257
v -0.900000 1.196973 -0.025257
v -0.900000 1.235355 -0.293934
v 0.900000 1.196973 -0.025257
v 0.600000 1.196973 -0.025257
v 0.600000 1.235355 -0.293934
v 0.900000 1.235355 -0.293934
v 0.900000 1.063640 0.908076
v 0.600000 1.063640 0.908076
v 0.600000 1.102022 0.639399
v 0.900000 1.102022 0.639399
v 0.900000 1.130306 0.441409
v 0.600000 1.130306 0.441409
v 0.600000 1.168689 0.172733
v 0.900000 1.168689 0.172733
v -0.600000 1.102022 0.639399
v -0.600000 1.063640 0.908076
v -0.900000 1.063640 0.908076
v -0.900000 1.102022 0.639399
v -0.600000 1.168689 0.172733
v -0.600000 1.130306 0.441409
v -0.900000 1.130306 0.441409
v -0.900000 1.168689 0.172733
v -0.100000 1.168689 0.172733
v -0.100000 1.130306 0.441409
v -0.400000 1.130306 0.441409
v -0.400000 1.168689 0.172733
v -0.100000 1.102022 0.639399
v -0.100000 1.063640 0.908076
v -0.400000 1.063640 0.908076
v -0.400000 1.102022 0.639399
v 0.400000 1.130306 0.441409
v 0.100000 1.130306 0.441409
v 0.100000 1.168689 0.172733
v 0.400000 1.168689 0.172733
v 0.400000 1.063640 0.908076
v 0.100000 1.063640 0.908076
v 0.100000 1.102022 0.639399
v 0.400000 1.102022 0.639399
v 0.400000 1.196973 -0.025257
v 0.100000 1.196973 -0.025257
v 0.100000 1.235355 -0.293934
v 0.400000 1.235355 -0.293934
v -0.100000 1.235355 -0.293934
v -0.100000 1.196973 -0.025257
v -0.400000 1.196973 -0.025257
v -0.400000 1.235355 -0.293934
vt 0.375000 0.000000
vt 0.625000 0.000000
vt 0.625000 0.041667
vt 0.625000 0.083333
vt 0.625000 0.125000
vt 0.625000 0.250000
vt 0.375000 0.250000
vt 0.625000 0.500000
vt 0.375000 0.500000
vt 0.625000 0.625000
vt 0.625000 0.666667
vt 0.625000 0.708333
vt 0.625000 0.750000
vt 0.375000 0.750000
vt 0.625000 0.812500
vt 0.625000 0.875000
vt 0.625000 0.937500
vt 0.625000 1.000000
vt 0.375000 1.000000
vt 0.125000 0.500000
vt 0.125000 0.750000
vt 0.677273 0.420458
vt 0.687625 0.230423
vt 0.687625 0.230423
vt 0.677273 0.420458
vt 0.862500 0.625000
vt 0.762500 0.625000
vt 0.762500 0.625000
vt 0.862500 0.625000
vt 0.625000 0.500000
vt 0.875000 0.500000
vt 0.875000 0.625000
vt 0.750000 0.625000
vt 0.625000 0.625000
vt 0.625000 0.125000
vt 0.625000 0.250000
vt 0.762500 0.625000
vt 0.762500 0.625000
vt 0.862500 0.625000
vt 0.875000 0.625000
vt 0.812500 0.625000
vt 0.750000 0.625000
vt 0.637500 0.625000
vt 0.737500 0.625000
vt 0.687500 0.625000
vt 0.737500 0.625000
vt 0.637500 0.625000
vt 0.737500 0.625000
vt 0.637500 0.625000
vt 0.637500 0.625000
vt 0.737500 0.625000
vt 0.862500 0.625000
vt 0.630555 0.810606
vt 0.644445 0.772727
vt 0.644445 0.772727
vt 0.630555 0.810606
vt 0.641542 0.123743
vt 0.639394 0.371209
vt 0.639394 0.371209
vt 0.641542 0.123743
vt 0.654797 0.799875
vt 0.632703 0.845958
vt 0.632703 0.845958
vt 0.654797 0.799875
vt 0.628031 0.726641
vt 0.638383 0.753789
vt 0.638383 0.753789
vt 0.628031 0.726641
vt 0.671211 0.553026
vt 0.637122 0.530307
vt 0.637122 0.530307
vt 0.671211 0.553026
vt 0.626136 0.752525
vt 0.626136 0.752525
vt 0.660859 0.743060
vt 0.660859 0.743060
vt 0.628284 0.787878
vt 0.628284 0.787878
vt 0.634975 0.777773
vt 0.634975 0.777773
vt 0.750000 0.562500
vt 0.810606 0.603791
vt 0.772727 0.554542
vt 0.845958 0.588757
vt 0.791667 0.416667
vt 0.799875 0.482077
vt 0.666667 0.687500
vt 0.634469 0.660859
vt 0.661617 0.671211
vt 0.636364 0.634975
vt 0.671716 0.637122
vt 0.645833 0.750000
vt 0.630302 0.706692
vt 0.644950 0.729544
vt 0.632197 0.680808
vt 0.655050 0.695456
vt 0.625000 0.437500
vt 0.687500 0.500000
vt 0.708333 0.208333
vt 0.743939 0.512124
vt 0.706061 0.462876
vt 0.766791 0.409590
vt 0.720708 0.302910
vt 0.666667 0.791667
vt 0.708333 0.708333
vt 0.706692 0.688894
vt 0.680808 0.723606
vt 0.729544 0.586359
vt 0.695456 0.563641
vt 0.655555 0.743939
vt 0.670203 0.766791
vt 0.669445 0.706061
vt 0.692297 0.720709
vt 0.680555 0.677273
vt 0.707703 0.687625
vt 0.694445 0.639394
vt 0.729797 0.641542
vt 0.752525 0.634727
vt 0.726641 0.669440
vt 0.787878 0.619693
vt 0.753789 0.596974
vt 0.772727 0.554542
vt 0.810606 0.603791
vt 0.845958 0.588757
vt 0.799875 0.482077
vt 0.661617 0.671211
vt 0.634469 0.660859
vt 0.636364 0.634975
vt 0.671716 0.637122
vt 0.644950 0.729544
vt 0.630302 0.706692
vt 0.632197 0.680808
vt 0.655050 0.695456
vt 0.706061 0.462876
vt 0.743939 0.512124
vt 0.766791 0.409590
vt 0.720708 0.302910
vt 0.680808 0.723606
vt 0.706692 0.688894
vt 0.729544 0.586359
vt 0.695456 0.563641
vt 0.670203 0.766791
vt 0.655555 0.743939
vt 0.669445 0.706061
vt 0.692297 0.720709
vt 0.707703 0.687625
vt 0.680555 0.677273
vt 0.694445 0.639394
vt 0.729797 0.641542
vt 0.726641 0.669440
vt 0.752525 0.634727
vt 0.787878 0.619693
vt 0.753789 0.596974
vn -1.0000 -0.0000 0.0000
vn 0.0000 0.0000 -1.0000
vn 1.0000 -0.0000 0.0000
vn 0.0000 0.0000 1.0000
vn 0.0000 -1.0000 0.0000
vn 0.0000 0.1414 -0.9899
vn 0.0000 0.9923 -0.1240
vn 0.0000 1.0000 0.0000
vn 0.0000 0.1240 0.9923
vn 0.0000 -0.9923 0.1240
vn 0.0000 -0.1414 0.9899
vn 0.0000 0.9899 0.1414
usemtl None
s off
f 1/1/1 2/2/1 38/3/1 39/4/1 18/5/1 4/6/1 3/7/1
f 3/7/2 4/6/2 8/8/2 7/9/2
f 7/9/3 8/8/3 22/10/3 36/11/3 37/12/3 6/13/3 5/14/3
f 5/14/4 6/13/4 43/15/4 33/16/4 40/17/4 2/18/4 1/19/4
f 3/20/5 7/9/5 5/14/5 1/21/5
f 65/22/6 66/23/6 115/24/6 112/25/6
f 9/26/7 15/27/7 27/28/7 26/29/7
f 13/30/8 12/31/8 17/32/8 23/33/8 24/34/8
f 4/6/1 18/5/1 17/35/1 12/36/1
f 22/10/3 8/8/3 13/30/3 24/34/3
f 8/8/2 4/6/2 12/36/2 13/30/2
f 15/27/1 16/37/1 28/38/1 27/28/1
f 9/26/9 11/39/9 17/32/9 18/40/9
f 15/27/9 9/26/9 18/40/9 42/41/9 21/42/9
f 11/39/9 16/37/9 23/33/9 17/32/9
f 16/37/9 15/27/9 21/42/9 23/33/9
f 10/43/9 19/44/9 21/42/9 41/45/9 22/10/9
f 20/46/9 14/47/9 24/34/9 23/33/9
f 14/47/9 10/43/9 22/10/9 24/34/9
f 19/44/9 20/46/9 23/33/9 21/42/9
f 29/48/9 30/49/9 32/50/9 31/51/9
f 26/29/9 27/28/9 28/38/9 25/52/9
f 10/43/1 14/47/1 32/50/1 30/49/1
f 19/44/7 10/43/7 30/49/7 29/48/7
f 16/37/10 11/39/10 25/52/10 28/38/10
f 20/46/3 19/44/3 29/48/3 31/51/3
f 11/39/3 9/26/3 26/29/3 25/52/3
f 14/47/10 20/46/10 31/51/10 32/50/10
f 85/53/3 86/54/3 135/55/3 132/56/3
f 67/57/11 64/58/11 113/59/11 114/60/11
f 87/61/1 84/62/1 133/63/1 134/64/1
f 58/65/6 59/66/6 106/67/6 107/68/6
f 78/69/1 79/70/1 126/71/1 127/72/1
f 64/58/3 65/22/3 112/25/3 113/59/3
f 84/62/11 85/53/11 132/56/11 133/63/11
f 57/73/3 58/65/3 107/68/3 104/74/3
f 77/75/6 78/69/6 127/72/6 124/76/6
f 59/66/1 56/77/1 105/78/1 106/67/1
f 79/70/11 76/79/11 125/80/11 126/71/11
f 47/81/12 42/41/12 49/82/12 48/83/12
f 42/41/12 18/40/12 50/84/12 49/82/12
f 18/40/12 39/85/12 51/86/12 50/84/12
f 39/85/12 47/81/12 48/83/12 51/86/12
f 45/87/12 36/11/12 53/88/12 52/89/12
f 36/11/12 22/10/12 54/90/12 53/88/12
f 22/10/12 41/45/12 55/91/12 54/90/12
f 41/45/12 45/87/12 52/89/12 55/91/12
f 43/15/12 6/13/12 57/73/12 56/77/12
f 6/13/12 37/12/12 58/65/12 57/73/12
f 37/12/12 44/92/12 59/66/12 58/65/12
f 44/92/12 43/15/12 56/77/12 59/66/12
f 44/92/12 37/12/12 61/93/12 60/94/12
f 37/12/12 36/11/12 62/95/12 61/93/12
f 36/11/12 45/87/12 63/96/12 62/95/12
f 45/87/12 44/92/12 60/94/12 63/96/12
f 40/97/12 46/98/12 65/22/12 64/58/12
f 46/98/12 38/99/12 66/23/12 65/22/12
f 38/99/12 2/2/12 67/57/12 66/23/12
f 2/2/12 40/97/12 64/58/12 67/57/12
f 46/98/12 47/81/12 69/100/12 68/101/12
f 47/81/12 39/85/12 70/102/12 69/100/12
f 39/85/12 38/99/12 71/103/12 70/102/12
f 38/99/12 46/98/12 68/101/12 71/103/12
f 35/104/12 34/105/12 73/106/12 72/107/12
f 34/105/12 47/81/12 74/108/12 73/106/12
f 47/81/12 46/98/12 75/109/12 74/108/12
f 46/98/12 35/104/12 72/107/12 75/109/12
f 33/16/12 35/104/12 77/75/12 76/79/12
f 35/104/12 46/98/12 78/69/12 77/75/12
f 46/98/12 40/97/12 79/70/12 78/69/12
f 40/97/12 33/16/12 76/79/12 79/70/12
f 35/104/12 44/92/12 81/110/12 80/111/12
f 44/92/12 45/87/12 82/112/12 81/110/12
f 45/87/12 34/105/12 83/113/12 82/112/12
f 34/105/12 35/104/12 80/111/12 83/113/12
f 33/16/12 43/15/12 85/53/12 84/62/12
f 43/15/12 44/92/12 86/54/12 85/53/12
f 44/92/12 35/104/12 87/61/12 86/54/12
f 35/104/12 33/16/12 84/62/12 87/61/12
f 34/105/12 45/87/12 89/114/12 88/115/12
f 45/87/12 41/45/12 90/116/12 89/114/12
f 41/45/12 21/42/12 91/117/12 90/116/12
f 21/42/12 34/105/12 88/115/12 91/117/12
f 34/105/12 21/42/12 93/118/12 92/119/12
f 21/42/12 42/41/12 94/120/12 93/118/12
f 42/41/12 47/81/12 95/121/12 94/120/12
f 47/81/12 34/105/12 92/119/12 95/121/12
f 97/122/12 96/123/12 99/124/12 98/125/12
f 101/126/12 100/127/12 103/128/12 102/129/12
f 105/78/12 104/74/12 107/68/12 106/67/12
f 109/130/12 108/131/12 111/132/12 110/133/12
f 113/59/12 112/25/12 115/24/12 114/60/12
f 117/134/12 116/135/12 119/136/12 118/137/12
f 121/138/12 120/139/12 123/140/12 122/141/12
f 125/80/12 124/76/12 127/72/12 126/71/12
f 129/142/12 128/143/12 131/144/12 130/145/12
f 133/63/12 132/56/12 135/55/12 134/64/12
f 137/146/12 136/147/12 139/148/12 138/149/12
f 141/150/12 140/151/12 143/152/12 142/153/12
f 92/119/3 93/118/3 140/151/3 141/150/3
f 72/107/3 73/106/3 120/139/3 121/138/3
f 86/54/6 87/61/6 134/64/6 135/55/6
f 52/89/11 53/88/11 100/127/11 101/126/11
f 66/23/1 67/57/1 114/60/1 115/24/1
f 95/121/11 92/119/11 141/150/11 142/153/11
f 75/109/11 72/107/11 121/138/11 122/141/11
f 55/91/1 52/89/1 101/126/1 102/129/1
f 93/118/6 94/120/6 143/152/6 140/151/6
f 73/106/6 74/108/6 123/140/6 120/139/6
f 53/88/3 54/90/3 103/128/3 100/127/3
f 80/111/11 81/110/11 128/143/11 129/142/11
f 94/120/1 95/121/1 142/153/1 143/152/1
f 60/94/11 61/93/11 108/131/11 109/130/11
f 74/108/1 75/109/1 122/141/1 123/140/1
f 54/90/6 55/91/6 102/129/6 103/128/6
f 83/113/1 80/111/1 129/142/1 130/145/1
f 63/96/1 60/94/1 109/130/1 110/133/1
f 81/110/3 82/112/3 131/144/3 128/143/3
f 61/93/3 62/95/3 111/132/3 108/131/3
f 88/115/11 89/114/11 136/147/11 137/146/11
f 68/101/3 69/100/3 116/135/3 117/134/3
f 82/112/6 83/113/6 130/145/6 131/144/6
f 48/83/3 49/82/3 96/123/3 97/122/3
f 62/95/6 63/96/6 110/133/6 111/132/6
f 91/117/1 88/115/1 137/146/1 138/149/1
f 71/103/11 68/101/11 117/134/11 118/137/11
f 51/86/11 48/83/11 97/122/11 98/125/11
f 89/114/3 90/116/3 139/148/3 136/147/3
f 69/100/6 70/102/6 119/136/6 116/135/6
f 49/82/6 50/84/6 99/124/6 96/123/6
f 76/79/3 77/75/3 124/76/3 125/80/3
f 90/116/6 91/117/6 138/149/6 139/148/6
f 56/77/11 57/73/11 104/74/11 105/78/11
f 70/102/1 71/103/1 118/137/1 119/136/1
f 50/84/1 51/86/1 98/125/1 99/124/1
