# Blender v2.79 (sub 0) OBJ File: 'testlvl.blend'
# www.blender.org
mtllib testlvl.mtl
o Cube
v 1.000000 -2.000000 -1.000000
v 1.000000 -2.000000 1.000000
v 0.800000 -2.000000 1.000000
v 0.800000 -2.000000 -1.000000
v 1.000000 2.000000 -0.999999
v 0.999999 2.000000 1.000001
v 0.800000 2.000000 1.000000
v 0.800000 2.000000 -1.000000
v 1.000000 -2.000000 -0.800000
v 0.800000 -2.000000 -0.800000
v 1.000000 2.000000 -0.799999
v 0.800000 2.000000 -0.800000
v -1.200000 -2.000000 -1.000001
v -1.200000 2.000000 -1.000000
v -1.200000 -2.000000 -0.800001
v -1.200000 2.000000 -0.800000
vn 0.0000 -1.0000 0.0000
vn 0.0000 1.0000 0.0000
vn 1.0000 0.0000 0.0000
vn -0.0000 -0.0000 1.0000
vn 0.0000 0.0000 -1.0000
vn -1.0000 -0.0000 -0.0000
usemtl Material
s off
f 9//1 2//1 3//1 10//1
f 11//2 12//2 7//2 6//2
f 9//3 11//3 6//3 2//3
f 2//4 6//4 7//4 3//4
f 4//1 10//1 15//1 13//1
f 5//5 1//5 4//5 8//5
f 3//6 7//6 12//6 10//6
f 1//3 5//3 11//3 9//3
f 5//2 8//2 12//2 11//2
f 1//1 9//1 10//1 4//1
f 15//6 16//6 14//6 13//6
f 10//4 12//4 16//4 15//4
f 12//2 8//2 14//2 16//2
f 8//5 4//5 13//5 14//5
