# Blender v2.79 (sub 0) OBJ File: 'vab_door.blend'
# www.blender.org
mtllib vab_door.mtl
o Cube_Cube.001
v 0.000000 -15.000000 7.500000
v -2.000000 15.000000 7.500000
v 0.000000 -15.000000 -7.500000
v -2.000000 15.000000 -7.500000
v 2.000000 -15.000000 7.500000
v 2.000000 15.000000 7.500000
v 2.000000 -15.000000 -7.500000
v 2.000000 15.000000 -7.500000
vn -0.9978 -0.0665 0.0000
vn 0.0000 0.0000 -1.0000
vn 1.0000 0.0000 0.0000
vn 0.0000 0.0000 1.0000
vn 0.0000 -1.0000 0.0000
vn 0.0000 1.0000 0.0000
usemtl None
s off
f 2//1 3//1 1//1
f 3//2 8//2 7//2
f 8//3 5//3 7//3
f 6//4 1//4 5//4
f 7//5 1//5 3//5
f 4//6 6//6 8//6
f 2//1 4//1 3//1
f 3//2 4//2 8//2
f 8//3 6//3 5//3
f 6//4 2//4 1//4
f 7//5 5//5 1//5
f 4//6 2//6 6//6
